<?xml version="1.0" encoding="UTF-8" standalone="no"?><svg id="Layer_1" data-name="Layer 1" xmlns="http://www.w3.org/2000/svg" viewBox="0 0 500 500"><defs><style>.cls-1{fill:#07070a;}</style></defs><path class="cls-1" d="M338.3,500c-10.95-2.93-18.63-9.83-23.68-19.79-1.12-2.2-3.21-2.1-4.92-2.46a237.35,237.35,0,0,0-85.15-2.37c-3,.47-6.12.73-9.16,1.18-8.48,1.26-16.09,2.57-22.15,10.78-7.52,10.18-19.53,10.83-31.52,8.41-15-3-29.11-8.62-43.33-13.83-16.09-5.89-32.71-8.85-49.54-11.26-8.33-1.2-16.46-3.3-23.85-7.63s-9.45-9.5-7-17.56c1.26-4.16,2.48-8.36,4-12.45,3.49-9.66,3.84-19.24.11-28.95a28.08,28.08,0,0,1-1.35-7.62c-.8-9.42,3.31-15.53,12.4-18.25,7-2.09,14.08-3.64,21-5.92,8.79-2.91,15.66-8.28,19.67-16.95a28.13,28.13,0,0,1,9.73-11.91c1.9-1.27,2-2.54,1.48-4.49-2.89-10.32-1.55-20.23,3.35-29.65,8.23-15.84,13.41-32.89,19.23-49.63a185.65,185.65,0,0,1,30.23-54.45c5-6.37,9.4-13.27,14.71-19.38,8.19-9.45,11.41-20.36,11.68-32.57.38-17.41-1.07-34.71-2.28-52s-2-34.95,2-52.3c4.71-20.6,17.32-33.78,36.7-41.26,18.19-7,36.65-9.19,55.66-3.95,22.08,6.09,36.48,20.66,45.45,41.21,8.24,18.87,10.83,38.84,11.73,59.17.65,14.72.45,29.52,3.78,44a75,75,0,0,0,12.31,26.68c19.1,27,38.22,53.94,54.69,82.67,11.87,20.69,19.36,42.33,17,66.61a138.43,138.43,0,0,1-3.47,21.55c-.9,3.44-.53,5.87,1.91,8.63,5.42,6.11,8.66,13.35,8.36,21.67-.55,15.14,7.09,24.67,20.31,30.58,4.46,2,8.88,4.06,11.54,8.47,4.93,8.15,2,18.21-7.64,24.71-12.76,8.64-26.86,14.94-40.07,22.8-13.79,8.21-27.7,16.25-39.26,27.65-5.78,5.7-13.32,7.86-20.88,9.88ZM184.84,421.53c6.67,7.62,13,14.8,19.26,22a5.29,5.29,0,0,0,3.72,1.92c18.72,2.08,37.35.83,55.76-2.5,23.2-4.19,41-17.57,56.24-35a10.59,10.59,0,0,0,2.81-7.41c.13-14.94-.25-29.89,1.93-44.75.66-4.43,3-6.79,7.17-8.11,4.37-1.4,8.64-.06,13.17.13,5.13-21.29,6.5-42.58,1.44-63.7-6.8-28.35-18.52-55-30.09-81.7C309.12,186,302,169.59,293.06,154c-1.68-2.94-3.54-3.59-6.72-2.46a104,104,0,0,0-14.44,6.81c-11.53,6.23-22.55,13.35-34.57,18.68-6.68,3-12.81,2.08-19-1.19-7.57-4-13.87-9.53-19.93-15.43-1.11-1.07-1.84-3.25-4.56-2.06,1.26,1.91,1.08,4,.86,6-1.48,13.93-5.9,26.86-14.24,38.17a94.67,94.67,0,0,0-11.92,22.09c-6.46,16.51-10.91,33.81-19.81,49.38s-12.56,32.9-12.08,50.82c.26,9.76,2.09,19.4,9.17,27A111.85,111.85,0,0,0,157.37,363c10,8,20,16.06,29.83,24.29a56.43,56.43,0,0,1,8,8.46C202.66,405.19,198.35,416.13,184.84,421.53ZM53.52,443.75c-.08,6.49.85,7.87,5.44,9.57,5.65,2.1,11.62,2.8,17.5,3.8,17.06,2.88,34,5.95,49.93,13.32A138.4,138.4,0,0,0,158,481c4.9.94,10.38,2.85,14.66-.1,13.25-9.14,20-20.38,10.94-36.73-3.25-5.86-7.75-10.76-11.79-16-12.24-16-21.81-33.68-32.38-50.73-4.73-7.64-10.2-14.67-17.48-20-7-5.11-11.57-4-15.78,3.51q-3.33,5.91-6.44,11.95A19,19,0,0,1,87,383.13c-6.43,1.57-12.88,3.07-19.27,4.79-9.93,2.66-11.9,6-9.71,16.19,1.79,8.35,2.2,16.57-.39,24.93C55.94,434.4,53.68,439.67,53.52,443.75Zm294.13-80.22c-6.84-.95-8.37.42-8.58,6.89-.28,8.3,1,16.52,1.17,24.8.33,18.14-4.1,35.64-7.26,53.31-1.6,9-1.43,17.79,3.58,25.86s12.18,10.6,21.25,7.46a42.32,42.32,0,0,0,16.88-10.27c14.1-14.7,31.8-23.78,49.48-33,6.17-3.21,12.53-6.08,18.18-10.19,4.26-3.11,4.45-5.94.58-9.54s-8.74-6.1-13.47-8.58c-6.25-3.28-9.89-8.53-12.23-15-2-5.45-2.19-11.08-2.6-16.72-.27-3.82-1.51-7.08-4.93-9.65-.62,1-1.11,1.61-1.46,2.3C400.88,386,388.47,392.77,372.43,394c-13.13,1-20.41-4.33-23.59-17.09C347.76,372.56,348.34,368.19,347.65,363.53Zm-116-196.81c3.9.46,7.2-1.52,10.4-3.29,10.61-5.88,21.1-12,31.6-18,3-1.72,7.25-2.56,7.22-7,0-4.63-4.4-5.92-7.56-8a5.81,5.81,0,0,0-.86-.44c-10.64-4.25-21.23-8.58-32.11-12.21a14.1,14.1,0,0,0-12.05,1.31c-9.86,5.5-17.54,13.81-26.49,20.48-1.74,1.29-1.29,3.26-.74,4.94,2.16,6.56,22.59,21.84,29.54,22.21C230.89,166.74,231.22,166.72,231.62,166.72Zm43.61-47.85c4.3,3.86,7.31,1.84,10.14-1.36,10.23-11.56,11-29.85,1.68-42.24-8.5-11.34-23.19-12.35-32.83-2-6.8,7.29-9.29,16.15-7.93,26s2,10.54,12.11,12.55c-1.63-5.44-2.26-10.82,0-16.12,2.11-5,5.5-8.78,11.14-8.8s9.25,3.69,11.19,8.71C284.17,104.49,282.26,112.31,275.23,118.87Zm-73.17,6.32c2.44-2.11,4.53-3.92,7.1-6.16-9.72-.31-15-14.94-12.26-23,1.32-3.89,3-7.48,7.34-8.17,4.16-.66,7,2.19,9.1,5.38,3.76,5.64,4.49,11.9,2.9,18.73,3-1.8,5.62-3.39,8.27-4.87a2.74,2.74,0,0,0,1.71-2.12c1.47-10.69.22-20.78-7.34-29.1-6.29-6.91-15.3-6.77-21.74,0-4.91,5.16-7.13,11.6-7.72,18.46C188.39,106.46,191.16,117.18,202.06,125.19Z"/></svg>